<svg width="186" height="97" viewBox="0 0 186 97" fill="none" xmlns="http://www.w3.org/2000/svg">
<path d="M70.9763 64.3309C71.5785 67.8559 68.3001 70.8237 64.7717 69.9476L24.5361 59.9576C20.6481 58.9923 19.3982 54.1746 22.344 51.508L55.713 21.3004C58.6588 18.6338 63.4462 20.2489 64.1097 24.1333L70.9763 64.3309Z" fill="black"/>
<path d="M65.0417 57.3769C65.7643 61.6069 61.8303 65.1682 57.5962 64.117L34.8842 58.4779C30.2186 57.3195 28.7187 51.5383 32.2536 48.3383L51.0897 31.2869C54.6245 28.0869 60.3695 30.0251 61.1657 34.6863L65.0417 57.3769Z" fill="#F5F5F5"/>
<path d="M85.48 53.0445H84.152L82.152 47.0925H82.04L79.928 53.0445H78.6L75.336 42.7885H76.616L76.792 43.7805L79.288 51.6205H79.4L81.608 45.3805L80.744 42.7885H82.056L82.296 43.8925L84.824 51.6205H84.92L87.704 43.8445L87.944 42.7885H89.16L85.48 53.0445ZM95.5853 52.0205L95.6813 52.1165L95.5693 53.0445H90.7213L90.7693 50.6445L90.7213 45.0765H95.6013L95.6813 45.1725L95.5853 46.1005L93.5693 46.0365L91.9053 46.0525L91.8893 48.4685L93.4733 48.4845L94.8653 48.4365L94.9453 48.5485L94.8493 49.4925L93.3773 49.4445L91.8893 49.4605L91.8733 50.5485L91.8893 52.0685L93.4573 52.0845L95.5853 52.0205ZM103.882 53.0445H102.682L102.49 52.1805L102.074 50.9965L100.17 50.9805L98.4744 50.9965L98.0424 52.1165L97.8184 53.0445H96.6344L99.7064 45.0765H101.082L103.882 53.0445ZM101.738 50.0205L100.41 46.2445H100.314L98.8584 50.0205L100.266 50.0365L101.738 50.0205ZM109.526 49.8285C110.177 50.8205 110.897 51.7965 111.686 52.7565L111.67 52.9165C111.222 53.0551 110.854 53.1351 110.566 53.1565L110.358 53.0285C109.547 51.8018 108.934 50.8365 108.518 50.1325L107.014 50.1485V50.5485L107.046 53.0445H105.862L105.91 50.6445L105.862 45.0765L108.582 45.0605C109.425 45.0605 110.07 45.2578 110.518 45.6525C110.977 46.0471 111.206 46.6178 111.206 47.3645C111.206 47.9085 111.057 48.3938 110.758 48.8205C110.47 49.2471 110.059 49.5831 109.526 49.8285ZM107.03 49.1565L108.534 49.2045C109.483 48.9378 109.958 48.3565 109.958 47.4605C109.958 46.9911 109.819 46.6391 109.542 46.4045C109.265 46.1698 108.843 46.0418 108.278 46.0205L107.046 46.0365L107.03 49.1565ZM124.008 53.0445H122.728L121.16 48.6925H121.064L119.416 53.0445H118.136L115.528 45.0765H116.728L116.872 45.9245L118.824 51.7165H118.904L120.648 47.0605L119.992 45.0765H121.24L121.416 46.0205L123.368 51.7165H123.464L125.624 45.9885L125.816 45.0765H126.984L124.008 53.0445ZM129.873 50.5485L129.905 53.0445H128.721L128.769 50.6445L128.721 45.0765H129.921L129.873 50.5485ZM137.683 45.1725L137.603 46.1805L136.115 46.0685H135.315L135.267 50.5485L135.315 53.0445H134.115L134.163 50.6445L134.131 46.0685H133.331L131.811 46.1805L131.715 46.0685L131.811 45.0765H137.619L137.683 45.1725ZM146.252 50.5485L146.284 53.0445H145.1L145.148 50.6445L145.132 49.5565L140.796 49.5725L140.78 50.5485L140.812 53.0445H139.628L139.676 50.6445L139.628 45.0765H140.828L140.796 48.5005L142.956 48.5165L145.132 48.5005L145.1 45.0765H146.3L146.252 50.5485ZM155.559 42.7245C157.021 42.7245 158.141 43.1405 158.919 43.9725C159.698 44.8045 160.087 45.9991 160.087 47.5565C160.087 49.3591 159.666 50.7405 158.823 51.7005C157.981 52.6605 156.77 53.1405 155.191 53.1405C154.754 53.1405 154.221 53.1298 153.591 53.1085C152.973 53.0978 152.397 53.0765 151.863 53.0445H151.847L151.927 49.9565L151.847 42.7885H151.863L155.559 42.7245ZM155.399 52.0685C156.487 52.0685 157.319 51.7165 157.895 51.0125C158.482 50.2978 158.775 49.2365 158.775 47.8285C158.775 45.1405 157.671 43.7965 155.463 43.7965C154.791 43.7965 154.018 43.8178 153.143 43.8605L153.079 49.8445L153.127 51.9725C153.458 52.0045 153.853 52.0311 154.311 52.0525C154.781 52.0631 155.143 52.0685 155.399 52.0685ZM167.007 52.0205L167.103 52.1165L166.991 53.0445H162.143L162.191 50.6445L162.143 45.0765H167.023L167.103 45.1725L167.007 46.1005L164.991 46.0365L163.327 46.0525L163.311 48.4685L164.895 48.4845L166.287 48.4365L166.367 48.5485L166.271 49.4925L164.799 49.4445L163.311 49.4605L163.295 50.5485L163.311 52.0685L164.879 52.0845L167.007 52.0205ZM175.704 50.6605L175.72 53.0445H174.44L170.248 46.9645H170.168L170.152 50.3885L170.184 53.0445H169.096L169.144 50.6925L169.112 45.0765H170.376L174.568 51.1565H174.68L174.648 45.1245L175.752 45.0445L175.704 50.6605ZM181.498 44.9805C182.661 44.9805 183.551 45.3218 184.17 46.0045C184.799 46.6871 185.114 47.6525 185.114 48.9005C185.114 50.2551 184.778 51.3058 184.106 52.0525C183.445 52.7885 182.495 53.1565 181.258 53.1565C180.106 53.1565 179.215 52.8098 178.586 52.1165C177.957 51.4125 177.642 50.4151 177.642 49.1245C177.642 47.8018 177.978 46.7831 178.65 46.0685C179.322 45.3431 180.271 44.9805 181.498 44.9805ZM181.386 45.9885C180.543 45.9885 179.914 46.2285 179.498 46.7085C179.093 47.1885 178.89 47.9458 178.89 48.9805C178.89 50.0898 179.093 50.8951 179.498 51.3965C179.903 51.8978 180.522 52.1485 181.354 52.1485C182.207 52.1485 182.842 51.9031 183.258 51.4125C183.674 50.9218 183.882 50.1538 183.882 49.1085C183.882 48.0311 183.674 47.2418 183.258 46.7405C182.853 46.2391 182.229 45.9885 181.386 45.9885Z" fill="black"/>
</svg>
